<?xml version="1.0" encoding="UTF-8"?>
<svg width="150" height="150" version="1.1" viewBox="0 0 150 150" xmlns="http://www.w3.org/2000/svg">
  <style>
    path { fill: #000; }
    @media (prefers-color-scheme: dark) {
      path { fill: #fff; }
    }
  </style>
  <path d="m78.816 98.751c-2.3993 1.113-4.9591 1.8741-7.6169 2.178-0.15403 0.0206-0.30983 0.0303-0.46453 0.0474-0.04424 10.265 0.1323 20.522 0.89775 30.76 0.14895 1.6881 0.31363 3.0491 0.78776 6.0448 0.59451 3.7344 0.83492 5.0086 1.578 8.2228 0.40524 1.7535 0.7773 3.2191 0.93498 3.7052 9e-3 0.0319 0.04036 0.14917 0.04485 0.15817 9e-3 0.0177 0.01724 0.0267 0.02623 0.0406 0.0015 2e-3 0.0062 0.0237 0.0093 0.0246 0.0061 7e-3 0.01179 7e-3 0.01777 0.0131 0.0309 0.0431 0.05829 0.0589 0.08799 0.0542 0.03 5e-3 0.05795-0.0115 0.08885-0.0542 0.0061-5e-3 0.0093-7e-3 0.01523-0.0131 0.0015-1e-3 0.0046-0.0224 0.0077-0.0246 9e-3 -0.0147 0.01588-0.0231 0.02792-0.0406 0.0029-8e-3 0.03325-0.12624 0.04314-0.15817 0.1575-0.48612 0.52974-1.9517 0.93498-3.7052 0.74312-3.2142 0.98354-4.4884 1.578-8.2228 0.61311-3.8737 0.7247-4.8022 0.92906-7.5704 0.04521-14.54 0.05166-21.779 0.07193-31.459z"/>
  <path d="m74.758 0.0030482c-1.317 0.024904-2.6179 0.20503-3.6629 0.55337-1.7464 0.57595-2.6205 1.6156-2.6205 3.1112 0 0.71529 0.13128 1.0596 0.6236 1.617 0.71526 0.80818 1.0575 1.8391 1.4105 4.2358 0.5202 3.5857 0.67855 6.7265 0.65068 13.554-0.01799 6.2797 0.0083 6.7619 0.63122 8.7034 0.0372 0.13934-0.26851 0.14892-3.8914 0.13962-4.6446-0.0186-4.5708-0.03805-5.4068 0.86306-0.38088 0.41803-0.68814 0.92103-1.2362 2.0172-0.39942 0.80818-0.79807 1.6903-0.89098 1.969-0.5109 1.5978 0.14848 1.8289 2.0993 0.72345 1.8764-1.059 3.2239-1.4855 5.4534-1.7363 1.3377-0.14862 3.4464-0.25114 3.4929-0.16754 0.22719 8.1037 0.19984 16.216 0.07193 24.332 2.494 0.8254 4.5074 2.9846 5.0591 5.5854 0.78751-0.63132 1.5599-1.2925 2.3176-1.9715-0.0031-8.8666-0.0049-17.215-0.02369-27.992l0.69806 0.01777c1.2076 0.0279 3.0735 0.20511 4.0953 0.38161 1.3655 0.23226 2.5645 0.65958 3.7535 1.3191 0.56664 0.31584 1.1799 0.65001 1.3657 0.74291 0.39012 0.19509 1.003 0.22306 1.1702 0.05585 0.0801-0.08013 0.11648-0.23071 0.11168-0.43576h-0.0025c-9e-3 -0.34174-0.13073-0.83561-0.36299-1.4046-1.1054-2.7311-2.1193-4.0492-3.2526-4.2442-0.2322-0.03714-2.1355-0.06515-4.2163-0.05585-3.5299 0.0186-3.7906 9e-3 -3.7349-0.13962 0.0372-0.0836 0.14902-0.44577 0.242-0.80806 0.38085-1.4863 0.40863-1.9976 0.38076-7.5712-0.0372-6.6791 0.12023-10.106 0.64053-13.702 0.35305-2.5082 0.6969-3.5672 1.375-4.3475 0.53839-0.62238 0.69549-1.0321 0.68622-1.7938-0.009006-0.96609-0.54664-1.8947-1.4198-2.4521-1.1728-0.75476-3.4123-1.1425-5.6074-1.1008z"/>
  <path d="m31.855 42.252c-16.722 0-25.719 6.0805-25.719 17.355 0 7.8542 4.9435 14.442 13.812 18.75l-8.4918 13.047c-3.9272 5.7007-7.2194 8.4885-11.4 8.4885l-0.88675 1.1397 0.88675 5.6996 13.047 1.0154c4.814 0 8.6166-2.7872 11.53-9.1214l8.4859-16.595h7.0974l0.12438 9.7526c0 6.4607-0.75961 7.2212-7.4739 7.4748l-0.50768 0.6346 1.1423 6.715c1.3e-5 -0.12628 13.048-0.25469 16.088-0.25469 6.461 0 13.937 0.63206 13.937 0.63206l-0.8106-6.7107c-1.1884-0.34986-2.34-0.80973-3.4319-1.38-1.0421-0.37319-1.8336-0.86487-2.4149-1.5324-1.18-0.88986-2.2515-1.9284-3.1569-3.1349-5.7011-8.0288-4.9581-19.632 0.91044-27.37 0.22503-0.3061 0.46193-0.60589 0.70653-0.90114l-0.03977-11.541c0-3.547 0.76176-4.5632 3.1688-4.5632 1.5202 0 3.6739 0.1303 3.6739 0.1303l0.75983-0.8876-1.0154-6.462s-9.3726 0.12691-13.427 0.12691c-4.434 0-16.595-0.50684-16.595-0.50684zm5.4449 9.2457c1.3935 0 1.6477 0.38182 1.7744 2.282 0.50669 6.9675 0.75983 12.666 0.75983 18.367l-8.9936 1.0145c-2.7871-1.0134-8.4893-3.6738-8.4893-11.655 0-6.8407 4.8139-10.009 14.949-10.009z"/>
  <path d="m118.14 42.252s-12.161 0.50684-16.595 0.50684c-4.0539 0-13.427-0.12691-13.427-0.12691l-1.0145 6.462 0.46707 0.54576c0.12631-0.4527 0.27428-0.89856 0.47299-1.3267 1.042-1.8161 3.3794-1.5776 5.1581-1.5907 0.16623-0.01212 0.33301-0.02427 0.49922-0.03638 0.52448 0.37822 0.58627 1.4737 0.91637 2.1382 0.81964 2.9158 2.4446 6.0449 1.2455 9.0875-0.37206 0.61403-0.76593 1.2124-1.1753 1.7989l-0.04568 13.272c0.81083 0.11329 1.6235 0.21591 2.442 0.28346 1.6241-0.54281 2.6056-2.1977 3.8736-3.2974 1.1909-1.7671 3.8966-1.3983 5.1614 0.10239 1.4725 1.0711 2.5791 3.252 1.3047 4.8898-2.2442 2.3885-4.356 4.9159-6.66 7.2539-1.6695 1.6167-4.017 1.2758-6.1565 0.90791l-0.02877 8.4089c0 5.574-1.5218 7.3468-7.2226 8.1068l-0.88675 7.347s7.4758-0.63206 13.937-0.63206c3.0404 0 16.088 0.12842 16.088 0.25469l1.1414-6.715-0.50683-0.6346c-6.7143-0.25357-7.4748-1.014-7.4748-7.4748l0.12523-9.7526h7.0974l8.4859 16.595c2.9138 6.3341 6.7163 9.1214 11.53 9.1214l13.047-1.0154 0.88676-5.6996-0.88676-1.1397c-4.1806 0-7.4736-2.7878-11.401-8.4885l-8.491-13.047c8.868-4.3072 13.812-10.895 13.812-18.75 0-11.275-8.9967-17.355-25.719-17.355zm-5.4449 9.2457c10.135 0 14.949 3.1682 14.949 10.009 0 7.9809-5.7022 10.641-8.4893 11.655l-8.9936-1.0145c0-5.7006 0.25314-11.4 0.75983-18.367 0.12673-1.9002 0.38081-2.282 1.7744-2.282z"/>
  <path d="m90.651 49.364-0.49141 0.42141c-1.0541 7.5193-6.6061 14.407-16.866 21.364l-0.2807-0.1407s1.1242-1.4759 1.1242-3.5841c0-3.3731-2.2493-5.4112-6.1847-5.4112-7.8006 0-15.531 8.7142-15.531 19.326 0 10.4 6.1841 17.146 16.234 17.146 10.19 0 19.959-7.871 22.981-18.412l6.0433 0.84353 1.265-0.49141 6.3954-7.0282v-0.4207l-1.6164-1.5464h-0.56212s-4.1468 4.4969-5.2712 4.4969c-3.1624 0-11.736-1.9671-14.758-1.9671l-1.1243 0.42212-6.6061 7.0268v0.35141l1.8271 1.5456h0.42141s4.0061-4.4269 5.4819-4.4269l4.2162 0.56282c-1.8974 9.1356-8.0108 14.546-16.514 14.546-7.1682 0-11.947-3.7246-13.564-9.7681 19.888-11.033 27.197-16.444 32.889-22.979 1.0542-1.1244 3.5841-4.0758 3.5841-5.2705 0-2.0379-1.6864-6.6061-1.6864-6.6061zm-25.088 17.287c1.8272 0 3.022 1.125 3.022 3.0927 0 3.6542-2.1782 5.9026-11.595 11.524v-2.1085c0-7.2382 4.0052-12.509 8.5732-12.509z"/>
</svg>
